# xmcd
#
# Track frame offsets:
#	150
#	17114
#	33768
#	51368
#	68747
#	82758
#	98766
#	116208
#	135125
#	149155
#	165391
#	180349
#	197545
#	215634
#	231868
#	248813
#
# Disc length: 3545 seconds
#
# Revision: 3
# Processed by: cddbd v1.5.2PL0 Copyright (c) Steve Scherf et al.
# Submitted via: EasyCDDAExtractor 16.1.0.1
#
DISCID=d20dd710
DTITLE=Various Artist - 江蕙成名冠軍曲1
DYEAR=0
DGENRE=Country
TTITLE0=妳著忍耐
TTITLE1=不想伊
TTITLE2=無奈無奈
TTITLE3=只有妳
TTITLE4=為你想替你想
TTITLE5=望你來關懷
TTITLE6=見面等何時
TTITLE7=大船入港
TTITLE8=薄情朗
TTITLE9=安娜
TTITLE10=風塵淚\
TTITLE11=還鄉
TTITLE12=無奈的相思
TTITLE13=瓊花之夢
TTITLE14=月台
TTITLE15=何必擱留戀
EXTD=
EXTT0=
EXTT1=
EXTT2=
EXTT3=
EXTT4=
EXTT5=
EXTT6=
EXTT7=
EXTT8=
EXTT9=
EXTT10=
EXTT11=
EXTT12=
EXTT13=
EXTT14=
EXTT15=
PLAYORDER=
